<svg id="visual" viewBox="0 0 900 600" width="900" height="600" xmlns="http://www.w3.org/2000/svg" xmlns:xlink="http://www.w3.org/1999/xlink" version="1.1"><rect x="0" y="0" width="900" height="600" fill="#002233"></rect><path d="M0 548L21.5 541C43 534 86 520 128.8 509.3C171.7 498.7 214.3 491.3 257.2 498.7C300 506 343 528 385.8 532.5C428.7 537 471.3 524 514.2 510C557 496 600 481 642.8 482.8C685.7 484.7 728.3 503.3 771.2 514.8C814 526.3 857 530.7 878.5 532.8L900 535L900 601L878.5 601C857 601 814 601 771.2 601C728.3 601 685.7 601 642.8 601C600 601 557 601 514.2 601C471.3 601 428.7 601 385.8 601C343 601 300 601 257.2 601C214.3 601 171.7 601 128.8 601C86 601 43 601 21.5 601L0 601Z" fill="#CAB1A2" stroke-linecap="round" stroke-linejoin="miter"></path></svg>